<svg id="Layer_1" data-name="Layer 1" xmlns="http://www.w3.org/2000/svg" viewBox="0 0 188 294"><defs><style>.cls-1{fill:#fff;}</style></defs><path class="cls-1" d="M180.58,146l-39.11,39.11a3.77,3.77,0,0,1-5.33,0L94.36,143.3l43.9-43.89-40.09.35A3.78,3.78,0,0,1,94.36,96V54.83l41.78-41.9a3.75,3.75,0,0,1,5.33,0l39.11,39.22a3.81,3.81,0,0,1,0,5.36l-41.5,41.62,41.5,41.51A3.77,3.77,0,0,1,180.58,146ZM49.2,99.14,93.64,54.7,51.86,12.92a3.77,3.77,0,0,0-5.33,0L7.42,52a3.77,3.77,0,0,0,0,5.33Zm3.5,85.94,41.62-41.62L50,99.18,8.42,140.8a3.76,3.76,0,0,0,0,5.32l39,39A3.76,3.76,0,0,0,52.7,185.08Zm93.08,65.06H135.43l-4.91,10.31h-.09l-4.86-10.31H115.22l9.23,15.44-9.9,16.6h10.62l5.26-10.75h.09l5.31,10.75h10.58l-9.86-16.6Zm-95.69,0h-9v32H64v-7.56H50.09Zm42.24,13.77c-1,3.87-1.84,7.88-2.43,11.79h-.09a105.41,105.41,0,0,0-2.43-11.79l-3.55-13.77H69.52v32h8.37V266.84q0-5.88-.27-11.75h.09c.81,3.83,1.71,7.79,2.7,11.61l4,15.48H95.3l4-15.48c1-3.82,1.89-7.78,2.7-11.61h.09q-.27,5.88-.27,11.75v15.34h8.37v-32H95.89Z"/></svg>