<svg id="Layer_1" data-name="Layer 1" xmlns="http://www.w3.org/2000/svg" viewBox="0 0 374.01 498.68"><defs><style>.cls-1{fill:#fff;}</style></defs><g id="Layer_2" data-name="Layer 2"><g id="Layer_1-2" data-name="Layer 1-2"><path class="cls-1" d="M101.51,171.78,24.56,94.84a12.1,12.1,0,0,1,0-17.1L93,9.34a12.1,12.1,0,0,1,17.1,0l76.95,77Z"/><path class="cls-1" d="M93,334.23l-68.4-68.4a12.1,12.1,0,0,1,0-17.1l77-76.95,85.5,85.5-76.95,77A12.1,12.1,0,0,1,93,334.23Z"/><path class="cls-1" d="M264,334.23l-76.94-77,85.49-85.5,76.95,76.95a12.1,12.1,0,0,1,0,17.1l-68.4,68.4a12.1,12.1,0,0,1-17.1,0Z"/><path class="cls-1" d="M264,9.34,187,86.29v73.4a12.09,12.09,0,0,0,12.09,12.09h73.4l76.95-76.94a12.1,12.1,0,0,0,0-17.1l-68.4-68.4A12.1,12.1,0,0,0,264,9.34Z"/></g></g><path class="cls-1" d="M144,472.84v11.74H108.47V434.85h14v38Z"/><path class="cls-1" d="M199.54,484.58V460.76q0-9.11.42-18.23h-.14c-1.26,5.94-2.65,12.09-4.19,18l-6.22,24h-16.9l-6.21-24c-1.54-5.93-2.93-12.08-4.19-18H162q.42,9.12.42,18.23v23.82h-13V434.85h22.21l5.51,21.37a164.14,164.14,0,0,1,3.77,18.3H181a184.54,184.54,0,0,1,3.78-18.3l5.51-21.37h22.21v49.73Z"/><path class="cls-1" d="M265.55,484.58H249.13l-8.24-16.7h-.14l-8.17,16.7H216.1l15.37-25.77-14.32-24h16.06l7.54,16h.14l7.62-16h16.06l-14.32,24Z"/></svg>